<?xml version="1.0" encoding="utf-8"?>
<!-- Generator: Adobe Illustrator 22.0.0, SVG Export Plug-In . SVG Version: 6.00 Build 0)  -->
<svg version="1.1" id="Capa_1" xmlns="http://www.w3.org/2000/svg" xmlns:xlink="http://www.w3.org/1999/xlink" x="0px" y="0px"
	 viewBox="0 0 640 512" style="enable-background:new 0 0 640 512;" xml:space="preserve">
<style type="text/css">
	.st0{fill:#51007F;}
	.st1{fill:#6A00BF;}
</style>
<path class="st0" d="M304.5,270.4v-18c0-1.5,0.7-2.8,1.8-3.4l12.1-6.1c0.3-0.2,0.7-0.2,1.1,0l12.1,6.1c1.1,0.6,1.8,1.9,1.8,3.4v18
	c0,0.8-0.5,1.4-1.1,1.4h-2.2c-0.6,0-1.1-0.6-1.1-1.4v-15c0-1-0.6-1.8-1.4-1.8h-17.4c-0.8,0-1.4,0.8-1.4,1.8v15
	c0,0.8-0.5,1.4-1.1,1.4h-2.2C305,271.7,304.5,271.1,304.5,270.4z M326.6,271.7h-15.2c-0.6,0-1.1-0.6-1.1-1.4v-3.2h17.4v3.2
	C327.7,271.1,327.2,271.7,326.6,271.7z M310.3,265.4v-3.6h17.4v3.6H310.3z M310.3,259.9v-4.6h17.4v4.6H310.3z"/>
<path class="st1" d="M306.6,270.4v-18c0-1.5,0.7-2.8,1.8-3.4l12.1-6.1c0.3-0.2,0.7-0.2,1.1,0l12.1,6.1c1.1,0.6,1.8,1.9,1.8,3.4v18
	c0,0.8-0.5,1.4-1.1,1.4h-2.2c-0.6,0-1.1-0.6-1.1-1.4v-15c0-1-0.6-1.8-1.5-1.8h-17.4c-0.8,0-1.5,0.8-1.5,1.8v15
	c0,0.8-0.5,1.4-1.1,1.4h-2.2C307.1,271.7,306.6,271.1,306.6,270.4z M328.7,271.7h-15.2c-0.6,0-1.1-0.6-1.1-1.4v-3.2h17.4v3.2
	C329.8,271.1,329.3,271.7,328.7,271.7z M312.4,265.4v-3.6h17.4v3.6H312.4z M312.4,259.9v-4.6h17.4v4.6H312.4z"/>
</svg>
